<svg xmlns="http://www.w3.org/2000/svg" viewBox="0 0 512 512" width="512" height="512">
  <defs>
    <linearGradient id="bg512" x1="0%" y1="0%" x2="100%" y2="100%">
      <stop offset="0%" stop-color="#667eea"/>
      <stop offset="100%" stop-color="#764ba2"/>
    </linearGradient>
  </defs>
  <!-- background circle -->
  <circle cx="256" cy="256" r="256" fill="url(#bg512)"/>
  <!-- neck -->
  <rect x="218" y="334" width="76" height="60" rx="22" fill="#F4C68A"/>
  <!-- shoulders / body -->
  <ellipse cx="256" cy="450" rx="140" ry="80" fill="#FF6B6B"/>
  <!-- collar detail -->
  <path d="M186 396 Q256 432 326 396" fill="#E05555"/>
  <!-- head -->
  <circle cx="256" cy="252" r="112" fill="#F4C68A"/>
  <!-- hair top -->
  <ellipse cx="256" cy="152" rx="112" ry="54" fill="#6B3A2A"/>
  <!-- hair sides -->
  <ellipse cx="155" cy="228" rx="27" ry="58" fill="#6B3A2A"/>
  <ellipse cx="357" cy="228" rx="27" ry="58" fill="#6B3A2A"/>
  <!-- ponytail bow -->
  <circle cx="256" cy="100" r="24" fill="#FF6B6B"/>
  <ellipse cx="218" cy="100" rx="24" ry="16" fill="#FF8E8E" transform="rotate(-30 218 100)"/>
  <ellipse cx="294" cy="100" rx="24" ry="16" fill="#FF8E8E" transform="rotate(30 294 100)"/>
  <!-- eyebrows -->
  <path d="M210 214 Q230 202 250 214" stroke="#6B3A2A" stroke-width="6.5" fill="none" stroke-linecap="round"/>
  <path d="M262 214 Q282 202 302 214" stroke="#6B3A2A" stroke-width="6.5" fill="none" stroke-linecap="round"/>
  <!-- eyes white -->
  <ellipse cx="229" cy="240" rx="21" ry="24" fill="white"/>
  <ellipse cx="283" cy="240" rx="21" ry="24" fill="white"/>
  <!-- pupils -->
  <circle cx="232" cy="243" r="13" fill="#3A2010"/>
  <circle cx="286" cy="243" r="13" fill="#3A2010"/>
  <!-- eye shine -->
  <circle cx="238" cy="237" r="5" fill="white"/>
  <circle cx="292" cy="237" r="5" fill="white"/>
  <!-- nose -->
  <ellipse cx="256" cy="276" rx="11" ry="8" fill="#E0A870"/>
  <!-- smile -->
  <path d="M214 300 Q256 332 298 300" stroke="#C0784A" stroke-width="6.5" fill="none" stroke-linecap="round"/>
  <!-- cheeks -->
  <circle cx="199" cy="290" r="22" fill="#FFB6C1" opacity="0.55"/>
  <circle cx="313" cy="290" r="22" fill="#FFB6C1" opacity="0.55"/>
  <!-- star badge -->
  <polygon points="256,386 265,408 290,408 270,422 278,444 256,430 234,444 242,422 222,408 247,408" fill="#FFD700"/>
</svg>
